<svg height="512" viewBox="0 0 512 512" width="512" xmlns="http://www.w3.org/2000/svg" xmlns:xlink="http://www.w3.org/1999/xlink"><linearGradient id="a" x1="0%" x2="100%" y1="0%" y2="100%"><stop offset="0" stop-color="#06b6d4"/><stop offset="1" stop-color="#2563eb"/></linearGradient><rect fill="url(#a)" height="480" rx="96" width="480" x="16" y="16"/><g fill="none" stroke="#fff" stroke-linecap="round" stroke-linejoin="round" stroke-width="26"><path d="m108 200v-80h80"/><path d="m324 120h80v80"/><path d="m108 312v80h80"/><path d="m324 392h80v-80"/></g><path d="m256 186c0 50 0 50-52 70 52 20 52 20 52 70 14-50 14-50 60-70-46-20-46-20-60-70z" fill="#fff"/><path d="m310 192c0 20 0 20-20 26 20 6 20 6 20 26 6-20 6-20 26-26-20-6-20-6-26-26z" fill="#fff" opacity=".7"/></svg>