<svg width="512" height="512" viewBox="0 0 512 512" xmlns="http://www.w3.org/2000/svg">
  <g transform="translate(256 256) scale(1.36) translate(-256 -256)">
    <g fill="none" stroke="#ffffff" stroke-linecap="round" stroke-linejoin="round" stroke-width="40">
      <path d="m108 200v-80h80"/>
      <path d="m324 120h80v80"/>
      <path d="m108 312v80h80"/>
      <path d="m324 392h80v-80"/>
    </g>
    <path d="m256 186c0 50 0 50-52 70 52 20 52 20 52 70 14-50 14-50 60-70-46-20-46-20-60-70z" fill="#ffffff"/>
    <path d="m310 192c0 20 0 20-20 26 20 6 20 6 20 26 6-20 6-20 26-26-20-6-20-6-26-26z" fill="#ffffff"/>
  </g>
</svg>
